<svg xmlns="http://www.w3.org/2000/svg" width="217" height="137" viewBox="0 0 217 137" fill="none">
<path d="M151.088 123.967C150.678 123.42 149.238 122.766 147.524 122.766H137.956C135.529 122.766 133.558 124.089 132.936 126.126L131.101 132.161C130.722 133.422 131.056 134.259 131.405 134.745C131.814 135.292 132.648 135.946 134.377 135.946H143.946C146.372 135.946 148.935 134.623 149.556 132.586L151.391 126.551C151.785 125.29 151.452 124.454 151.088 123.967ZM146.357 127.494C146.22 127.965 145.432 130.504 145.265 131.066C144.962 132.085 144.598 132.328 143.46 132.328H136.985C136.212 132.328 135.969 131.857 136.166 131.233C136.303 130.762 137.091 128.224 137.258 127.661C137.561 126.643 137.925 126.399 139.063 126.399H145.538C146.311 126.399 146.554 126.855 146.357 127.494Z" fill="white"/>
<path d="M177.996 123.967C177.587 123.42 176.753 122.766 175.024 122.766H162.665C162.362 122.766 162.104 122.964 162.013 123.253L158.419 135.049C158.283 135.49 158.616 135.931 159.071 135.931H162.422C162.726 135.931 162.983 135.733 163.074 135.444L163.757 133.21H172.279C174.705 133.21 176.677 131.887 177.298 129.85L178.314 126.536C178.694 125.29 178.36 124.454 177.996 123.967ZM173.265 127.494C173.128 127.965 173.174 127.783 173.007 128.33C172.704 129.348 172.34 129.592 171.202 129.592H164.864L165.834 126.384H172.431C173.219 126.399 173.462 126.855 173.265 127.494Z" fill="white"/>
<path d="M203.437 122.766H187.636C187.333 122.766 187.075 122.964 186.984 123.253L186.302 125.502C186.165 125.943 186.499 126.384 186.954 126.384H192.656L190.017 135.049C189.881 135.49 190.214 135.931 190.669 135.931H194.02C194.324 135.931 194.581 135.733 194.672 135.444L197.432 126.384H202.74C203.043 126.384 203.301 126.186 203.392 125.898L204.074 123.648C204.226 123.222 203.892 122.766 203.437 122.766Z" fill="white"/>
<path d="M106.701 123.253L103.108 135.049C102.971 135.49 103.305 135.931 103.76 135.931H107.111C107.414 135.931 107.672 135.733 107.763 135.444L110.523 126.384H118.302L115.663 135.049C115.527 135.49 115.861 135.931 116.316 135.931H119.667C119.97 135.931 120.228 135.733 120.319 135.444L123.913 123.648C124.049 123.207 123.716 122.766 123.261 122.766H107.338C107.05 122.766 106.792 122.964 106.701 123.253Z" fill="white"/>
<path d="M93.4816 133.194C93.6181 132.754 93.2845 132.313 92.8295 132.313H83.8524C83.079 132.313 82.8364 131.842 83.0335 131.218C83.17 130.747 83.9585 128.208 84.1253 127.646C84.4286 126.627 84.7925 126.384 85.9299 126.384H95.0587C95.362 126.384 95.6197 126.186 95.7107 125.898L96.3931 123.648C96.5296 123.207 96.196 122.766 95.7411 122.766H84.8229C82.3966 122.766 80.4253 124.089 79.8035 126.126L77.9687 132.161C77.5896 133.422 77.9232 134.259 78.272 134.745C78.6814 135.292 79.5154 135.946 81.2441 135.946H92.132C92.4353 135.946 92.6931 135.748 92.784 135.46L93.4816 133.194Z" fill="white"/>
<path d="M83.2592 82.9529H74.2062C73.4935 82.9529 72.8718 83.4241 72.6595 84.1082C71.5828 87.6806 68.2012 98.9147 65.4717 107.595C55.9789 111.441 53.6588 107.397 54.9326 103.202C56.1457 99.2491 59.1331 89.3528 60.4372 85.0355C60.7556 84.0018 59.9671 82.9681 58.8904 82.9681H49.8678C49.1551 82.9681 48.5333 83.4241 48.3362 84.1082C47.4415 87.0117 45.0001 94.9926 42.7558 102.472C39.9504 111.821 43.2865 117.902 53.1281 117.886C56.3125 117.886 59.7093 116.853 62.9241 115.424C58.2687 127.631 47.6235 130.306 39.9353 127.068C39.2984 126.795 38.5401 127.175 38.343 127.843C36.7356 133.438 41.7246 137.117 50.2469 136.904C61.0892 136.63 70.8701 130.033 75.7833 114.405C79.0739 103.946 83.244 90.2041 84.806 85.0507C85.1244 84.0018 84.351 82.9529 83.2592 82.9529Z" fill="#D8232A"/>
<path d="M171.14 82.9529H162.087C161.375 82.9529 160.753 83.4089 160.556 84.0778C159.449 87.6806 155.931 99.1731 153.353 107.595C143.875 111.426 141.555 107.382 142.844 103.186C144.057 99.2339 147.045 89.3376 148.349 85.0203C148.667 83.9866 147.879 82.9529 146.802 82.9529H137.764C137.051 82.9529 136.43 83.4089 136.233 84.093C135.338 86.9965 132.896 94.9774 130.652 102.457C127.847 111.806 131.183 117.886 141.024 117.871C144.542 117.871 148.349 116.594 151.852 114.922C152.761 119.27 160.101 117.674 162.345 117.065C162.739 116.959 163.058 116.655 163.179 116.245L172.702 85.0203C172.99 84.017 172.217 82.9529 171.14 82.9529Z" fill="#D8232A"/>
<path d="M214.428 82.9538H205.375C204.663 82.9538 204.041 83.4099 203.844 84.0787C203.086 86.5566 201.19 92.7437 199.249 99.098C190.727 102.154 188.634 98.3075 189.862 94.2791C190.863 90.9955 191.985 87.2711 192.668 85.0212C192.986 83.9875 192.198 82.9386 191.121 82.9386H182.053C181.34 82.9386 180.718 83.3946 180.521 84.0635C180.127 85.3557 179.308 88.0464 177.67 93.519C174.835 102.898 178.171 108.979 188.012 108.964C190.878 108.964 193.926 108.113 196.853 106.912C196.337 108.599 195.852 110.18 195.428 111.579C192.865 120 202.934 117.811 205.618 117.097C206.012 116.99 206.331 116.686 206.452 116.276L215.975 85.0516C216.278 84.0179 215.505 82.9538 214.428 82.9538Z" fill="#D8232A"/>
<path d="M52.9321 75.2309C54.3272 75.2309 55.692 75.2461 57.0568 75.2461C73.707 75.3677 88.0523 75.4893 94.4212 54.9062C96.7868 47.2446 100.002 36.649 103.975 23.4235C105.628 17.8901 104.612 12.0678 101.169 7.44653C97.727 2.81001 92.4651 0.164917 86.7027 0.164917H66.1856C57.2994 0.164917 49.5657 5.88075 46.9423 14.3937C42.7418 28.06 36.752 47.5638 31.7782 63.784C26.7437 64.4985 22.6342 65.7906 19.2071 67.7364C12.7927 71.3544 8.37988 77.4503 5.69583 86.3585C4.4372 90.5086 3.0421 94.9627 2.01094 98.2006L1.76832 98.9759C0.0547715 104.388 0.342892 109.207 2.58719 112.521C4.37655 115.181 7.24257 116.747 10.8971 117.051C11.9738 117.142 12.9746 117.188 13.9148 117.188C18.9796 117.188 22.4674 115.926 25.5154 113.098C29.4429 109.465 32.688 102.989 36.0545 92.1199C37.6315 87.0122 39.4057 81.2811 41.2558 75.2461H52.9321V75.2309ZM58.4216 19.1518C59.6195 15.1994 63.1983 12.5543 67.3229 12.5543H84.4129C86.7482 12.5543 88.8863 13.6336 90.2814 15.5034C91.6765 17.3732 92.086 19.7447 91.4036 21.9793C88.4011 31.9517 84.61 44.6299 83.5182 48.4455C81.653 54.9822 79.6665 58.4786 76.6792 60.5004C73.4796 62.6743 69.1123 63.0999 63.1073 63.0999H44.9861C49.9751 46.8189 55.0703 30.1122 58.4216 19.1518ZM23.5289 90.7822C20.2382 101.712 17.7058 107.854 14.5668 106.911C13.9603 106.729 13.5812 106.44 13.3537 105.953C12.4742 104.144 13.6722 99.2647 17.2357 90.1285C20.1928 82.5429 22.5735 78.5752 27.8203 76.6902C25.9096 82.9381 24.3932 87.9243 23.5289 90.7822Z" fill="#D8232A"/>
<path d="M106.341 81.7373C96.7264 83.6376 88.1284 92.1657 87.1882 101.773C86.1267 112.779 95.2859 120.593 107.538 117.765C115.318 115.972 121.399 110.529 124.28 104.205C124.477 103.78 124.143 103.293 123.673 103.293H117.031C116.516 103.293 116.03 103.552 115.727 103.977C113.559 106.911 110.207 109.024 106.765 109.146C101.443 109.328 98.5461 104.707 100.26 99.1889C101.852 94.0811 106.871 90.2047 111.481 90.2047C114.271 90.2047 116.44 91.6184 117.486 93.8683C117.744 94.4308 118.305 94.7804 118.927 94.7804H125.265C125.66 94.7804 125.978 94.4308 125.917 94.0355C124.598 84.5345 115.56 79.9131 106.341 81.7373Z" fill="#D8232A"/>
</svg>
